<mxfile host="app.diagrams.net" agent="Mozilla/5.0 (Windows NT 10.0; Win64; x64) AppleWebKit/537.36 (KHTML, like Gecko) Chrome/138.0.0.0 Safari/537.36 Edg/138.0.0.0" version="28.0.5">
  <diagram name="Page-1" id="Yay8gkdrrfTUArw_L0t_">
    <mxGraphModel dx="1378" dy="752" grid="1" gridSize="8" guides="1" tooltips="1" connect="1" arrows="1" fold="1" page="1" pageScale="1" pageWidth="1700" pageHeight="1100" background="none" math="0" shadow="1">
      <root>
        <mxCell id="0" />
        <mxCell id="1" parent="0" />
        <mxCell id="ynbUYO4sn585GT9K957H-20" value="" style="rounded=0;whiteSpace=wrap;html=1;fillColor=#d5e8d4;strokeColor=#82b366;" parent="1" vertex="1">
          <mxGeometry x="108" y="456" width="304" height="144" as="geometry" />
        </mxCell>
        <mxCell id="YleI4EzTrmfIdfU0BML3-15" value="" style="rounded=0;whiteSpace=wrap;html=1;fillColor=#f5f5f5;strokeColor=#666666;fontColor=#333333;" parent="1" vertex="1">
          <mxGeometry x="282" y="101" width="130" height="123" as="geometry" />
        </mxCell>
        <mxCell id="YleI4EzTrmfIdfU0BML3-51" value="" style="rounded=0;whiteSpace=wrap;html=1;fillColor=#fff2cc;strokeColor=#d6b656;" parent="1" vertex="1">
          <mxGeometry x="648" y="760" width="136.27" height="122" as="geometry" />
        </mxCell>
        <mxCell id="YleI4EzTrmfIdfU0BML3-27" value="" style="rounded=0;whiteSpace=wrap;html=1;fillColor=#dae8fc;strokeColor=#6c8ebf;" parent="1" vertex="1">
          <mxGeometry x="274" y="760" width="144" height="120" as="geometry" />
        </mxCell>
        <mxCell id="YleI4EzTrmfIdfU0BML3-17" value="" style="rounded=0;whiteSpace=wrap;html=1;fillColor=#f5f5f5;strokeColor=#666666;fontColor=#333333;" parent="1" vertex="1">
          <mxGeometry x="844.53" y="111" width="118.95" height="101" as="geometry" />
        </mxCell>
        <mxCell id="YleI4EzTrmfIdfU0BML3-31" value="&lt;b&gt;Machine Network&lt;/b&gt;" style="text;html=1;align=center;verticalAlign=middle;whiteSpace=wrap;rounded=0;fontSize=13;" parent="1" vertex="1">
          <mxGeometry x="849" y="40" width="110" height="30" as="geometry" />
        </mxCell>
        <mxCell id="ynbUYO4sn585GT9K957H-3" value="WAPT Server&lt;div&gt;Rustdesk Controller&lt;/div&gt;" style="sketch=0;aspect=fixed;html=1;align=center;fontSize=12;image=img/lib/mscae/VM_Linux.svg;shape=image;labelBackgroundColor=default;verticalAlign=top;verticalLabelPosition=bottom;points=[];" parent="1" vertex="1">
          <mxGeometry x="128" y="178" width="50" height="46" as="geometry" />
        </mxCell>
        <mxCell id="ynbUYO4sn585GT9K957H-1" value="GoAnywhere Server" style="image;sketch=0;aspect=fixed;html=1;points=[];align=center;fontSize=12;image=img/lib/mscae/VM_Linux.svg;" parent="1" vertex="1">
          <mxGeometry x="305" y="110.19999999999999" width="80" height="73.6" as="geometry" />
        </mxCell>
        <mxCell id="ynbUYO4sn585GT9K957H-8" value="&lt;div&gt;&lt;b&gt;No P2P Connections!&lt;/b&gt;&lt;/div&gt;" style="text;html=1;align=center;verticalAlign=middle;whiteSpace=wrap;rounded=0;" parent="1" vertex="1">
          <mxGeometry x="235" y="390" width="180" height="30" as="geometry" />
        </mxCell>
        <mxCell id="ynbUYO4sn585GT9K957H-11" value="&lt;div&gt;Rustdesk Agent&lt;/div&gt;Machine PC" style="sketch=0;pointerEvents=1;shadow=0;dashed=0;html=1;strokeColor=none;fillColor=#00BEF2;labelPosition=center;verticalLabelPosition=bottom;verticalAlign=top;outlineConnect=0;align=center;shape=image;labelBackgroundColor=default;points=[];aspect=fixed;image=img/lib/allied_telesis/computer_and_terminals/Personal_Computer_with_Server.svg;" parent="1" vertex="1">
          <mxGeometry x="877.48" y="111.80000000000001" width="51" height="52" as="geometry" />
        </mxCell>
        <mxCell id="_s0eA9olQBRWRWWSmCxI-32" style="edgeStyle=orthogonalEdgeStyle;rounded=0;orthogonalLoop=1;jettySize=auto;html=1;" edge="1" parent="1" source="ynbUYO4sn585GT9K957H-15" target="_s0eA9olQBRWRWWSmCxI-29">
          <mxGeometry relative="1" as="geometry" />
        </mxCell>
        <mxCell id="_s0eA9olQBRWRWWSmCxI-33" value="SMB 445" style="edgeLabel;html=1;align=center;verticalAlign=middle;resizable=0;points=[];" vertex="1" connectable="0" parent="_s0eA9olQBRWRWWSmCxI-32">
          <mxGeometry x="-0.0335" relative="1" as="geometry">
            <mxPoint x="1" y="5" as="offset" />
          </mxGeometry>
        </mxCell>
        <mxCell id="ynbUYO4sn585GT9K957H-15" value="&lt;div&gt;Office Client 01&lt;br&gt;PCBTXXXXX&lt;/div&gt;" style="sketch=0;pointerEvents=1;shadow=0;dashed=0;html=1;strokeColor=none;fillColor=#00BEF2;labelPosition=center;verticalLabelPosition=bottom;verticalAlign=top;outlineConnect=0;align=center;shape=image;labelBackgroundColor=default;points=[];aspect=fixed;image=img/lib/allied_telesis/computer_and_terminals/Personal_Computer_with_Server.svg;" parent="1" vertex="1">
          <mxGeometry x="688" y="777" width="51" height="52" as="geometry" />
        </mxCell>
        <mxCell id="iATs5-p0Ry6HwTi2f4iV-11" value="" style="sketch=0;aspect=fixed;pointerEvents=1;shadow=0;dashed=0;html=1;strokeColor=none;labelPosition=center;verticalLabelPosition=bottom;verticalAlign=top;align=center;shape=mxgraph.mscae.enterprise.not_allowed;fillColor=#EA1C24;" parent="1" vertex="1">
          <mxGeometry x="301" y="349" width="45" height="45" as="geometry" />
        </mxCell>
        <mxCell id="iATs5-p0Ry6HwTi2f4iV-19" value="&lt;b&gt;Production Network&lt;/b&gt;" style="text;html=1;align=center;verticalAlign=middle;whiteSpace=wrap;rounded=0;fontSize=13;" parent="1" vertex="1">
          <mxGeometry x="274.75" y="42" width="142.5" height="30" as="geometry" />
        </mxCell>
        <mxCell id="iATs5-p0Ry6HwTi2f4iV-20" value="&lt;b&gt;All connections monitored via server&lt;/b&gt;" style="text;html=1;align=center;verticalAlign=middle;whiteSpace=wrap;rounded=0;" parent="1" vertex="1">
          <mxGeometry x="236.5" y="225" width="215" height="30" as="geometry" />
        </mxCell>
        <mxCell id="iATs5-p0Ry6HwTi2f4iV-22" value="" style="sketch=0;aspect=fixed;pointerEvents=1;shadow=0;dashed=0;html=1;strokeColor=none;labelPosition=center;verticalLabelPosition=bottom;verticalAlign=top;align=center;shape=mxgraph.mscae.enterprise.not_allowed;fillColor=#EA1C24;" parent="1" vertex="1">
          <mxGeometry x="550.14" y="338.64" width="26.73" height="26.73" as="geometry" />
        </mxCell>
        <mxCell id="iATs5-p0Ry6HwTi2f4iV-24" value="&lt;div&gt;&lt;b&gt;Firewall Ruleset Required!&lt;/b&gt;&lt;/div&gt;" style="text;html=1;align=center;verticalAlign=middle;whiteSpace=wrap;rounded=0;" parent="1" vertex="1">
          <mxGeometry x="520" y="150" width="180" height="30" as="geometry" />
        </mxCell>
        <mxCell id="_s0eA9olQBRWRWWSmCxI-1" value="GoAnywhere Server&lt;br&gt;SVEPE9067" style="image;sketch=0;aspect=fixed;html=1;points=[];align=center;fontSize=12;image=img/lib/mscae/VM_Linux.svg;" vertex="1" parent="1">
          <mxGeometry x="322" y="480" width="50" height="46" as="geometry" />
        </mxCell>
        <mxCell id="_s0eA9olQBRWRWWSmCxI-2" value="File Server Prod&lt;br&gt;SVEPE0163" style="image;sketch=0;aspect=fixed;html=1;points=[];align=center;fontSize=12;image=img/lib/mscae/VM_Linux.svg;" vertex="1" parent="1">
          <mxGeometry x="689" y="482" width="50" height="46" as="geometry" />
        </mxCell>
        <mxCell id="_s0eA9olQBRWRWWSmCxI-3" value="File Server Transfer&lt;br&gt;SVEPE9150" style="image;sketch=0;aspect=fixed;html=1;points=[];align=center;fontSize=12;image=img/lib/mscae/VM_Linux.svg;" vertex="1" parent="1">
          <mxGeometry x="144" y="480" width="50" height="46" as="geometry" />
        </mxCell>
        <mxCell id="_s0eA9olQBRWRWWSmCxI-8" style="edgeStyle=orthogonalEdgeStyle;rounded=0;orthogonalLoop=1;jettySize=auto;html=1;exitX=1;exitY=0.5;exitDx=0;exitDy=0;exitPerimeter=0;" edge="1" parent="1" source="_s0eA9olQBRWRWWSmCxI-5" target="_s0eA9olQBRWRWWSmCxI-2">
          <mxGeometry relative="1" as="geometry" />
        </mxCell>
        <mxCell id="_s0eA9olQBRWRWWSmCxI-25" value="SMB 445" style="edgeLabel;html=1;align=center;verticalAlign=middle;resizable=0;points=[];" vertex="1" connectable="0" parent="_s0eA9olQBRWRWWSmCxI-8">
          <mxGeometry x="0.0204" y="-1" relative="1" as="geometry">
            <mxPoint y="-3" as="offset" />
          </mxGeometry>
        </mxCell>
        <mxCell id="_s0eA9olQBRWRWWSmCxI-5" value="Firewall" style="sketch=0;points=[[0.015,0.015,0],[0.985,0.015,0],[0.985,0.985,0],[0.015,0.985,0],[0.25,0,0],[0.5,0,0],[0.75,0,0],[1,0.25,0],[1,0.5,0],[1,0.75,0],[0.75,1,0],[0.5,1,0],[0.25,1,0],[0,0.75,0],[0,0.5,0],[0,0.25,0]];verticalLabelPosition=bottom;html=1;verticalAlign=top;aspect=fixed;align=center;pointerEvents=1;shape=mxgraph.cisco19.rect;prIcon=firewall;fillColor=#FAFAFA;strokeColor=#005073;" vertex="1" parent="1">
          <mxGeometry x="520" y="478" width="53.76" height="42" as="geometry" />
        </mxCell>
        <mxCell id="_s0eA9olQBRWRWWSmCxI-10" style="edgeStyle=orthogonalEdgeStyle;rounded=0;orthogonalLoop=1;jettySize=auto;html=1;entryX=0;entryY=0.5;entryDx=0;entryDy=0;entryPerimeter=0;" edge="1" parent="1" source="_s0eA9olQBRWRWWSmCxI-1" target="_s0eA9olQBRWRWWSmCxI-5">
          <mxGeometry relative="1" as="geometry" />
        </mxCell>
        <mxCell id="_s0eA9olQBRWRWWSmCxI-39" value="SMB 445" style="edgeLabel;html=1;align=center;verticalAlign=middle;resizable=0;points=[];" vertex="1" connectable="0" parent="_s0eA9olQBRWRWWSmCxI-10">
          <mxGeometry x="-0.1146" y="1" relative="1" as="geometry">
            <mxPoint as="offset" />
          </mxGeometry>
        </mxCell>
        <mxCell id="_s0eA9olQBRWRWWSmCxI-11" style="edgeStyle=orthogonalEdgeStyle;rounded=0;orthogonalLoop=1;jettySize=auto;html=1;entryX=0.92;entryY=0.5;entryDx=0;entryDy=0;entryPerimeter=0;" edge="1" parent="1" source="_s0eA9olQBRWRWWSmCxI-1" target="_s0eA9olQBRWRWWSmCxI-3">
          <mxGeometry relative="1" as="geometry">
            <mxPoint x="256" y="560" as="targetPoint" />
          </mxGeometry>
        </mxCell>
        <mxCell id="_s0eA9olQBRWRWWSmCxI-40" value="SMB 445" style="edgeLabel;html=1;align=center;verticalAlign=middle;resizable=0;points=[];" vertex="1" connectable="0" parent="_s0eA9olQBRWRWWSmCxI-11">
          <mxGeometry x="-0.0758" y="2" relative="1" as="geometry">
            <mxPoint as="offset" />
          </mxGeometry>
        </mxCell>
        <mxCell id="_s0eA9olQBRWRWWSmCxI-21" style="edgeStyle=orthogonalEdgeStyle;rounded=0;orthogonalLoop=1;jettySize=auto;html=1;" edge="1" parent="1" source="_s0eA9olQBRWRWWSmCxI-12" target="_s0eA9olQBRWRWWSmCxI-18">
          <mxGeometry relative="1" as="geometry" />
        </mxCell>
        <mxCell id="_s0eA9olQBRWRWWSmCxI-12" value="&lt;div&gt;Machine PC&lt;br&gt;PCEPEXXXXX&lt;/div&gt;" style="sketch=0;pointerEvents=1;shadow=0;dashed=0;html=1;strokeColor=none;fillColor=#00BEF2;labelPosition=center;verticalLabelPosition=bottom;verticalAlign=top;outlineConnect=0;align=center;shape=image;labelBackgroundColor=default;points=[];aspect=fixed;image=img/lib/allied_telesis/computer_and_terminals/Personal_Computer_with_Server.svg;" vertex="1" parent="1">
          <mxGeometry x="321" y="776" width="51" height="52" as="geometry" />
        </mxCell>
        <mxCell id="_s0eA9olQBRWRWWSmCxI-20" style="edgeStyle=orthogonalEdgeStyle;rounded=0;orthogonalLoop=1;jettySize=auto;html=1;" edge="1" parent="1" source="_s0eA9olQBRWRWWSmCxI-18" target="_s0eA9olQBRWRWWSmCxI-12">
          <mxGeometry relative="1" as="geometry" />
        </mxCell>
        <mxCell id="_s0eA9olQBRWRWWSmCxI-24" value="SMB 445" style="edgeLabel;html=1;align=center;verticalAlign=middle;resizable=0;points=[];" vertex="1" connectable="0" parent="_s0eA9olQBRWRWWSmCxI-20">
          <mxGeometry x="0.122" y="3" relative="1" as="geometry">
            <mxPoint x="-4" y="-3" as="offset" />
          </mxGeometry>
        </mxCell>
        <mxCell id="_s0eA9olQBRWRWWSmCxI-23" style="edgeStyle=orthogonalEdgeStyle;rounded=0;orthogonalLoop=1;jettySize=auto;html=1;" edge="1" parent="1" source="_s0eA9olQBRWRWWSmCxI-18" target="_s0eA9olQBRWRWWSmCxI-3">
          <mxGeometry relative="1" as="geometry" />
        </mxCell>
        <mxCell id="_s0eA9olQBRWRWWSmCxI-42" value="Trigger by GoAnywhere" style="edgeLabel;html=1;align=center;verticalAlign=middle;resizable=0;points=[];" vertex="1" connectable="0" parent="_s0eA9olQBRWRWWSmCxI-23">
          <mxGeometry x="0.2937" y="1" relative="1" as="geometry">
            <mxPoint as="offset" />
          </mxGeometry>
        </mxCell>
        <mxCell id="_s0eA9olQBRWRWWSmCxI-18" value="Firewall&lt;div&gt;&lt;br/&gt;&lt;/div&gt;" style="sketch=0;points=[[0.015,0.015,0],[0.985,0.015,0],[0.985,0.985,0],[0.015,0.985,0],[0.25,0,0],[0.5,0,0],[0.75,0,0],[1,0.25,0],[1,0.5,0],[1,0.75,0],[0.75,1,0],[0.5,1,0],[0.25,1,0],[0,0.75,0],[0,0.5,0],[0,0.25,0]];verticalLabelPosition=bottom;html=1;verticalAlign=top;aspect=fixed;align=center;pointerEvents=1;shape=mxgraph.cisco19.rect;prIcon=firewall;fillColor=#FAFAFA;strokeColor=#005073;" vertex="1" parent="1">
          <mxGeometry x="315" y="624" width="61.44" height="48" as="geometry" />
        </mxCell>
        <mxCell id="_s0eA9olQBRWRWWSmCxI-19" style="edgeStyle=orthogonalEdgeStyle;rounded=0;orthogonalLoop=1;jettySize=auto;html=1;entryX=0.5;entryY=0;entryDx=0;entryDy=0;entryPerimeter=0;" edge="1" parent="1" source="_s0eA9olQBRWRWWSmCxI-1" target="_s0eA9olQBRWRWWSmCxI-18">
          <mxGeometry relative="1" as="geometry" />
        </mxCell>
        <mxCell id="_s0eA9olQBRWRWWSmCxI-41" value="SMB 445" style="edgeLabel;html=1;align=center;verticalAlign=middle;resizable=0;points=[];" vertex="1" connectable="0" parent="_s0eA9olQBRWRWWSmCxI-19">
          <mxGeometry x="0.102" y="-1" relative="1" as="geometry">
            <mxPoint as="offset" />
          </mxGeometry>
        </mxCell>
        <mxCell id="_s0eA9olQBRWRWWSmCxI-35" style="edgeStyle=orthogonalEdgeStyle;rounded=0;orthogonalLoop=1;jettySize=auto;html=1;" edge="1" parent="1" source="_s0eA9olQBRWRWWSmCxI-29" target="_s0eA9olQBRWRWWSmCxI-2">
          <mxGeometry relative="1" as="geometry" />
        </mxCell>
        <mxCell id="_s0eA9olQBRWRWWSmCxI-29" value="Firewall" style="sketch=0;points=[[0.015,0.015,0],[0.985,0.015,0],[0.985,0.985,0],[0.015,0.985,0],[0.25,0,0],[0.5,0,0],[0.75,0,0],[1,0.25,0],[1,0.5,0],[1,0.75,0],[0.75,1,0],[0.5,1,0],[0.25,1,0],[0,0.75,0],[0,0.5,0],[0,0.25,0]];verticalLabelPosition=bottom;html=1;verticalAlign=top;aspect=fixed;align=center;pointerEvents=1;shape=mxgraph.cisco19.rect;prIcon=firewall;fillColor=#FAFAFA;strokeColor=#005073;" vertex="1" parent="1">
          <mxGeometry x="682" y="624" width="64" height="50" as="geometry" />
        </mxCell>
      </root>
    </mxGraphModel>
  </diagram>
</mxfile>
